<?xml version="1.0" standalone="no"?>
<!DOCTYPE svg PUBLIC "-//W3C//DTD SVG 20010904//EN"
 "http://www.w3.org/TR/2001/REC-SVG-20010904/DTD/svg10.dtd">
<svg version="1.0" xmlns="http://www.w3.org/2000/svg"
 width="175.000000pt" height="130.000000pt" viewBox="0 0 175.000000 130.000000"
 preserveAspectRatio="xMidYMid meet">

<g transform="translate(0.000000,130.000000) scale(0.100000,-0.100000)"
fill="#000000" stroke="none">
<path d="M815 1178 c-38 -50 -71 -94 -73 -98 -1 -4 33 -10 76 -13 44 -3 125
-16 181 -27 114 -24 146 -20 55 6 -57 16 -92 34 -65 34 7 0 9 5 6 10 -4 6 -1
17 5 25 14 17 14 17 -55 104 -22 27 -44 50 -50 50 -5 0 -41 -41 -80 -91z"/>
<path d="M626 935 c-30 -38 -54 -70 -52 -72 2 -2 55 -6 117 -9 200 -9 362 -50
647 -163 28 -11 52 -17 52 -12 0 5 -61 33 -135 62 -146 58 -143 55 -136 137 2
35 7 42 25 43 19 0 19 1 -4 11 -78 33 -213 59 -331 65 l-126 6 -57 -68z"/>
<path d="M525 783 c-20 -4 -98 -94 -111 -126 -5 -14 0 -16 45 -10 74 8 259
-14 392 -48 115 -29 272 -85 546 -193 78 -31 148 -56 155 -56 7 0 27 12 43 26
l30 26 -37 -22 -37 -21 -128 52 c-70 28 -149 62 -174 75 l-46 23 8 58 c7 47 5
61 -9 76 -16 18 -15 18 13 13 29 -6 29 -6 5 5 -68 31 -108 45 -245 83 -139 39
-363 58 -450 39z"/>
<path d="M371 571 c-27 -5 -45 -21 -92 -81 -32 -41 -56 -76 -55 -77 2 -2 23 6
47 16 49 22 151 41 220 41 125 0 295 -46 479 -130 122 -56 208 -80 288 -80 59
0 189 27 197 41 8 11 9 12 -49 -6 -55 -17 -201 -20 -256 -5 -19 5 -57 17 -85
27 -39 14 -45 19 -27 21 29 4 36 21 23 54 -11 29 -4 44 24 49 46 9 -289 109
-428 128 -83 12 -229 13 -286 2z m673 -136 c-4 -8 -8 -15 -10 -15 -2 0 -4 7
-4 15 0 8 4 15 10 15 5 0 7 -7 4 -15z"/>
<path d="M335 363 c-92 -19 -198 -76 -257 -136 -27 -27 -48 -53 -48 -58 0 -5
24 4 53 20 163 91 394 105 599 35 38 -13 124 -52 191 -88 171 -90 244 -111
382 -110 91 0 121 5 175 25 87 33 162 84 235 160 60 63 60 63 -17 -9 -78 -72
-161 -122 -247 -148 -48 -14 -228 -19 -246 -6 -15 10 -20 92 -6 92 6 0 11 5
11 11 0 6 -7 8 -17 5 -17 -7 -17 -6 -1 11 14 13 21 15 30 5 7 -7 19 -12 27
-12 27 1 -32 29 -60 30 -32 0 -156 42 -229 76 -100 48 -184 76 -285 95 -117
22 -194 23 -290 2z"/>
</g>
</svg>
